<svg xmlns="http://www.w3.org/2000/svg" width="50" height="50" viewBox="0 0 50 50" fill="none"><path d="M11.327 19.9627C12.1219 19.9627 12.7664 19.3183 12.7664 18.5233C12.7664 17.7284 12.1219 17.0839 11.327 17.0839C10.5321 17.0839 9.88762 17.7284 9.88762 18.5233C9.88762 19.3183 10.5321 19.9627 11.327 19.9627Z" fill="#19A350"></path><path d="M13.4148 24.2807H9.23924C8.80313 24.2807 8.44833 24.6089 8.44833 25.0119V28.049C9.34213 28.3995 10.3108 28.5988 11.327 28.5988C12.3432 28.5988 13.3119 28.3995 14.2057 28.049V25.0119C14.2057 24.609 13.8509 24.2807 13.4148 24.2807Z" fill="#19A350"></path><path d="M28.5992 10.6068C29.3941 10.6068 30.0386 9.96231 30.0386 9.16736C30.0386 8.3724 29.3941 7.72796 28.5992 7.72796C27.8042 7.72796 27.1598 8.3724 27.1598 9.16736C27.1598 9.96231 27.8042 10.6068 28.5992 10.6068Z" fill="#19A350"></path><path d="M30.6869 14.9249H26.5114C26.0753 14.9249 25.7205 15.253 25.7205 15.6561V18.6932C26.6143 19.0437 27.583 19.243 28.5992 19.243C29.6154 19.243 30.5841 19.0436 31.4779 18.6932V15.6561C31.4779 15.253 31.1231 14.9249 30.6869 14.9249Z" fill="#19A350"></path><path d="M37.9549 29.3186C38.7499 29.3186 39.3943 28.6741 39.3943 27.8792C39.3943 27.0842 38.7499 26.4398 37.9549 26.4398C37.16 26.4398 36.5155 27.0842 36.5155 27.8792C36.5155 28.6741 37.16 29.3186 37.9549 29.3186Z" fill="#19A350"></path><path d="M40.0427 33.6367H35.8672C35.4311 33.6367 35.0763 33.9648 35.0763 34.3679V37.405C35.9701 37.7555 36.9388 37.9548 37.9549 37.9548C38.9711 37.9548 39.9398 37.7554 40.8336 37.405V34.3679C40.8336 33.9656 40.4788 33.6367 40.0427 33.6367Z" fill="#19A350"></path><path d="M37.9549 22.1217C37.8585 22.1217 37.7649 22.1325 37.67 22.1361L34.6178 16.4521C35.7132 15.1696 36.4004 13.5351 36.494 11.7431L41.0214 13.9288C40.9055 14.2405 40.8336 14.5737 40.8336 14.9249C40.8336 16.5125 42.1247 17.8036 43.7123 17.8036C45.2999 17.8036 46.5909 16.5124 46.5909 14.9249C46.5909 13.3372 45.2998 12.0462 43.7123 12.0462C43.0049 12.0462 42.3651 12.3124 41.8634 12.737L36.4097 10.1037C35.7447 5.84528 31.6851 2.69669 27.0913 3.54952C23.9492 4.13246 21.4217 6.65206 20.828 9.79205C20.7516 10.1951 20.7085 10.5938 20.6919 10.9867L16.4264 14.6363C15.2202 13.6172 13.7075 12.9522 12.0465 12.8018V9.06447C13.2843 8.7428 14.2055 7.62583 14.2055 6.28789C14.2055 4.70023 12.9144 3.40918 11.3268 3.40918C9.73919 3.40918 8.44816 4.70031 8.44816 6.28789C8.44816 7.62574 9.36937 8.74272 10.6072 9.06447V12.8018C6.57841 13.1674 3.41047 16.5593 3.41047 20.6817C3.41047 23.4539 4.84554 25.8936 7.00887 27.3085V25.0114C7.00887 23.8145 8.00995 22.8407 9.23916 22.8407H13.4147C14.6446 22.8407 15.645 23.8145 15.645 25.0114V27.3085C17.4427 26.1333 18.723 24.2449 19.1094 22.0513L22.3573 24.5831C22.2069 24.9322 22.1213 25.3157 22.1213 25.7195C22.1213 27.3071 23.4124 28.5982 24.9999 28.5982C26.5875 28.5982 27.8786 27.307 27.8786 25.7195C27.8786 24.1318 26.5875 22.8407 24.9999 22.8407C24.3378 22.8407 23.7347 23.0746 23.2475 23.4518L19.2238 20.3154C19.1432 18.5543 18.4934 16.9394 17.4418 15.6612L20.8171 12.7724C21.2194 14.9343 22.5026 16.7897 24.2801 17.9519V15.6547C24.2801 14.4579 25.2812 13.4841 26.5104 13.4841H30.6859C31.9158 13.4841 32.9162 14.4579 32.9162 15.6547V16.409C32.9162 16.7105 33.0904 16.943 33.3199 17.0632L36.1511 22.3363C32.6535 23.156 30.0382 26.2939 30.0382 30.0376C30.0382 30.9322 30.2016 31.7857 30.4765 32.5875L27.5626 34.7732C26.1996 32.3789 23.6289 30.7574 20.6818 30.7574C16.5595 30.7574 13.167 33.9255 12.8021 37.9542H9.06433C8.74267 36.7164 7.62495 35.7951 6.28779 35.7951C4.70023 35.795 3.40912 37.0861 3.40912 38.6738C3.40912 40.2614 4.70023 41.5525 6.28779 41.5525C7.62495 41.5525 8.74258 40.6313 9.06433 39.3934H12.8117C13.0369 41.8633 14.3906 44.0102 16.364 45.3006V43.0034C16.364 41.8066 17.3651 40.8328 18.5943 40.8328H22.7698C23.9997 40.8328 25.0001 41.8066 25.0001 43.0034V45.3006C26.6892 44.1966 27.9227 42.4629 28.3876 40.4385L33.1043 42.7163C32.9884 43.0279 32.9165 43.3611 32.9165 43.7123C32.9165 45.3 34.2076 46.591 35.7951 46.591C37.3828 46.591 38.6738 45.2999 38.6738 43.7123C38.6738 42.1247 37.3827 40.8336 35.7951 40.8336C35.0877 40.8336 34.4479 41.0998 33.9463 41.5245L28.5819 38.9344C28.5848 38.8466 28.5984 38.7624 28.5984 38.6745C28.5984 37.7793 28.4422 36.9221 28.1674 36.1189L31.0756 33.9375C31.7024 35.0358 32.5804 35.9735 33.6369 36.6644V34.3672C33.6369 33.1704 34.638 32.1966 35.8672 32.1966H40.0427C41.2726 32.1966 42.273 33.1704 42.273 34.3672V36.6644C44.4363 35.2495 45.8714 32.8097 45.8714 30.0376C45.8714 25.6733 42.3198 22.1217 37.9549 22.1217ZM11.327 21.402C9.73936 21.402 8.44833 20.1109 8.44833 18.5233C8.44833 16.9357 9.73944 15.6446 11.327 15.6446C12.9146 15.6446 14.2057 16.9357 14.2057 18.5233C14.2057 20.1109 12.9139 21.402 11.327 21.402ZM28.5992 12.0462C27.0115 12.0462 25.7205 10.755 25.7205 9.16744C25.7205 7.57986 27.0116 6.28873 28.5992 6.28873C30.1867 6.28873 31.4779 7.57986 31.4779 9.16744C31.4779 10.755 30.1861 12.0462 28.5992 12.0462ZM20.6827 39.3941C19.0951 39.3941 17.8041 38.103 17.8041 36.5154C17.8041 34.9277 19.0952 33.6367 20.6827 33.6367C22.2703 33.6367 23.5614 34.9278 23.5614 36.5154C23.5614 38.1031 22.2696 39.3941 20.6827 39.3941ZM37.9549 30.7579C36.3673 30.7579 35.0763 29.4668 35.0763 27.8792C35.0763 26.2915 36.3674 25.0005 37.9549 25.0005C39.5425 25.0005 40.8336 26.2916 40.8336 27.8792C40.8336 29.4675 39.5418 30.7579 37.9549 30.7579Z" fill="#19A350"></path><path d="M20.6827 37.9548C21.4777 37.9548 22.1221 37.3103 22.1221 36.5154C22.1221 35.7204 21.4777 35.076 20.6827 35.076C19.8878 35.076 19.2434 35.7204 19.2434 36.5154C19.2434 37.3103 19.8878 37.9548 20.6827 37.9548Z" fill="#19A350"></path><path d="M22.7705 42.2729H18.595C18.1589 42.2729 17.8041 42.6011 17.8041 43.0041V46.0412C18.6979 46.3917 19.6666 46.591 20.6827 46.591C21.6989 46.591 22.6676 46.3916 23.5614 46.0412V43.0041C23.5614 42.6018 23.2066 42.2729 22.7705 42.2729Z" fill="#19A350"></path></svg>